<svg xmlns="http://www.w3.org/2000/svg" width="1920" height="1080" viewBox="0 0 1920 1080">
  <!-- Background -->
  <rect width="1920" height="1080" fill="#0f172a"/>

  <!-- Definitions -->
  <defs>
    <!-- Radar grid pattern -->
    <pattern id="radar-grid" width="80" height="80" patternUnits="userSpaceOnUse">
      <circle cx="40" cy="40" r="40" fill="none" stroke="#1e293b" stroke-width="0.5" opacity="0.4"/>
      <circle cx="40" cy="40" r="20" fill="none" stroke="#1e293b" stroke-width="0.5" opacity="0.4"/>
      <line x1="40" y1="0" x2="40" y2="80" stroke="#1e293b" stroke-width="0.5" opacity="0.3"/>
      <line x1="0" y1="40" x2="80" y2="40" stroke="#1e293b" stroke-width="0.5" opacity="0.3"/>
    </pattern>

    <!-- Warning glow -->
    <filter id="warning-glow">
      <feGaussianBlur stdDeviation="6" result="coloredBlur"/>
      <feMerge>
        <feMergeNode in="coloredBlur"/>
        <feMergeNode in="SourceGraphic"/>
      </feMerge>
    </filter>
  </defs>

  <!-- Radar background -->
  <rect width="1920" height="1080" fill="url(#radar-grid)"/>

  <!-- Mountain terrain (French Alps) -->
  <g opacity="0.5" fill="#1e293b" stroke="#475569" stroke-width="2">
    <polygon points="0,900 200,750 350,820 550,700 750,780 900,680 1050,750 1200,700 1400,800 1600,720 1800,820 1920,750 1920,1080 0,1080"/>
    <polygon points="150,850 300,720 450,780 600,700 750,760 900,720 1050,800 1200,740 1350,820 1500,760 1650,850 1800,780 1920,850 1920,1080 0,1080" opacity="0.6"/>
  </g>

  <!-- Impact zone indicator -->
  <g opacity="0.3">
    <circle cx="950" cy="760" r="80" stroke="#ff4757" stroke-width="3" fill="none" stroke-dasharray="10,8"/>
    <circle cx="950" cy="760" r="120" stroke="#ff4757" stroke-width="2" fill="none" stroke-dasharray="15,12"/>
  </g>

  <!-- Descent path (controlled, deliberate) -->
  <g stroke="#ff4757" stroke-width="3" fill="none" opacity="0.4" stroke-dasharray="15,10">
    <path d="M 500,250 Q 700,450 900,650"/>
    <text x="480" y="245" font-family="monospace" font-size="16" fill="#ff4757">38,000 ft</text>
    <text x="730" y="475" font-family="monospace" font-size="16" fill="#fbbf24">TERRAIN</text>
  </g>

  <!-- Airbus A320 - Top-down view (descending toward mountains) -->
  <g transform="translate(960, 520) rotate(-25)">
    <g stroke="#00d4aa" stroke-width="3.5" fill="none" stroke-linecap="round" stroke-linejoin="round">
      <!-- Fuselage (narrow body) -->
      <ellipse cx="0" cy="0" rx="33" ry="120"/>

      <!-- Cockpit nose -->
      <path d="M -23,-105 Q 0,-125 23,-105" fill="#00d4aa" opacity="0.3"/>

      <!-- Cockpit door - LOCKED -->
      <g transform="translate(0, -35)" filter="url(#warning-glow)">
        <rect x="-18" y="0" width="36" height="3" fill="#ff4757" opacity="0.7"/>
        <circle cx="-22" cy="1.5" r="8" stroke="#ff4757" stroke-width="3" fill="none" opacity="0.6"/>
        <path d="M -22,-3 L -22,6" stroke="#ff4757" stroke-width="3" opacity="0.7"/>
        <text x="28" y="5" font-family="monospace" font-size="12" fill="#ff4757" opacity="0.9">LOCKED</text>
      </g>

      <!-- Wings -->
      <ellipse cx="0" cy="0" rx="165" ry="42"/>

      <!-- Wing structural lines -->
      <line x1="-165" y1="0" x2="-33" y2="0" stroke-width="2.5"/>
      <line x1="165" y1="0" x2="33" y2="0" stroke-width="2.5"/>

      <!-- Engines (2 - A320 configuration under wings) -->
      <ellipse cx="-95" cy="0" rx="13" ry="26" fill="#00d4aa" opacity="0.4"/>
      <ellipse cx="95" cy="0" rx="13" ry="26" fill="#00d4aa" opacity="0.4"/>

      <!-- Tail -->
      <g>
        <!-- Vertical stabilizer -->
        <path d="M -13,100 L 0,125 L 13,100" fill="#00d4aa" opacity="0.6"/>
        <rect x="-7" y="100" width="14" height="30" fill="#00d4aa" opacity="0.5"/>

        <!-- Horizontal stabilizers -->
        <ellipse cx="0" cy="105" rx="48" ry="12" opacity="0.7"/>
      </g>
    </g>
  </g>

  <!-- Top identifier -->
  <g font-family="monospace" text-anchor="middle">
    <text x="960" y="120" font-size="56" fill="#00d4aa" font-weight="bold">4U9525</text>
    <text x="960" y="165" font-size="22" fill="#94a3b8">24 MAR 2015</text>
    <text x="960" y="195" font-size="22" fill="#94a3b8">FRENCH ALPS, FRANCE</text>
  </g>

  <!-- Event callout -->
  <g font-family="monospace" fill="#ff4757">
    <line x1="1050" y1="460" x2="1220" y2="370" stroke="#ff4757" stroke-width="2.5" filter="url(#warning-glow)"/>
    <text x="1230" y="365" font-size="20" font-weight="bold">DELIBERATE CRASH</text>
    <text x="1230" y="390" font-size="16" fill="#94a3b8">Cockpit door locked</text>
    <text x="1230" y="415" font-size="16" fill="#94a3b8">8-minute descent</text>
  </g>

  <!-- Timeline -->
  <g font-family="monospace" opacity="0.6">
    <text x="100" y="400" font-size="18" fill="#94a3b8">10:29 - Captain exits cockpit</text>
    <text x="100" y="425" font-size="18" fill="#fbbf24">10:30 - Descent initiated</text>
    <text x="100" y="450" font-size="18" fill="#ff4757">10:41 - Impact</text>
    <text x="100" y="475" font-size="16" fill="#64748b">No mechanical failure</text>
  </g>

  <!-- Safety change note -->
  <g font-family="monospace" opacity="0.5">
    <text x="1820" y="900" font-size="16" fill="#00d4aa" text-anchor="end">Led to "Rule of Two" requirement</text>
    <text x="1820" y="925" font-size="14" fill="#64748b" text-anchor="end">Two persons in cockpit at all times</text>
  </g>

  <!-- Bottom info -->
  <g>
    <rect x="0" y="1000" width="1920" height="80" fill="#1e293b" opacity="0.8"/>
    <text x="100" y="1050" font-family="monospace" font-size="32" fill="#ff4757" font-weight="bold">150 FATALITIES</text>
    <text x="1820" y="1050" font-family="monospace" font-size="20" fill="#64748b" text-anchor="end">AIRBUS A320-211 / D-AIPX</text>
  </g>
</svg>
